<svg width="71" height="34" viewBox="0 0 71 34" fill="none" xmlns="http://www.w3.org/2000/svg">
<g clip-path="url(#clip0_5410_266)">
<path d="M-11.2698 -26.871H82.8334V64.7097H-11.2698V-26.871Z" fill="black"/>
<path d="M14.634 10.4152C15.3172 10.1844 16.0459 10.0612 16.8019 10.0612C20.1113 10.0612 22.8742 12.4434 23.5057 15.6104L28.1965 14.6409C27.1217 9.26102 22.4279 5.21069 16.8019 5.21069C15.5115 5.21069 14.2758 5.42306 13.116 5.81701L14.634 10.4152Z" fill="#FFCB05"/>
<path d="M9.09923 25.8224L12.272 22.1876C10.8572 20.9164 9.96453 19.0605 9.96453 16.9923C9.96453 14.9271 10.8572 13.0712 12.272 11.8032L9.09923 8.16528C6.69459 10.3259 5.17651 13.4806 5.17651 16.9923C5.17651 20.5071 6.69459 23.6618 9.09923 25.8224Z" fill="#00A4E0"/>
<path d="M23.5057 18.3834C22.8711 21.5474 20.1113 23.9265 16.8049 23.9265C16.0459 23.9265 15.3141 23.8034 14.634 23.5694L13.116 28.1738C14.2758 28.5646 15.5145 28.777 16.8049 28.777C22.4248 28.777 27.1157 24.7328 28.1965 19.3591L23.5057 18.3834Z" fill="#EF4123"/>
<path d="M32.2983 22.3383C32.1435 22.086 31.937 21.6828 31.8095 21.3842C31.0657 19.6361 31.0323 17.8264 31.6577 16.0905C32.3469 14.1854 33.6646 12.7296 35.3679 11.9848C37.5084 11.0522 39.8735 11.2338 41.926 12.468C43.2285 13.2251 44.1515 14.3947 44.8528 16.0505C44.9409 16.2629 45.0198 16.4875 45.0988 16.6814L32.2983 22.3383ZM36.5732 14.7948C35.0521 15.4565 34.2688 16.903 34.4328 18.5958L40.8694 15.7858C39.7612 14.4685 38.3221 14.0315 36.5732 14.7948ZM41.6709 20.9072C41.6679 20.9072 41.6679 20.9103 41.6679 20.9103L41.5343 20.8179C41.1487 21.4489 40.5506 21.9629 39.7946 22.2953C38.3555 22.9293 37.0226 22.7662 36.0632 21.9136L35.9751 22.049C35.9751 22.049 35.9751 22.046 35.9721 22.046L34.3386 24.5236C34.7455 24.8098 35.1796 25.0499 35.6351 25.2438C37.4385 26.004 39.2845 25.967 41.1032 25.1668C42.4178 24.5882 43.4501 23.7079 44.1545 22.5907L41.6709 20.9072ZM49.571 8.3407V22.1106L51.6842 22.9785L50.4849 25.8162L48.1531 24.8313C47.6309 24.6005 47.2727 24.2496 47.0055 23.8526C46.7474 23.4494 46.5561 22.8923 46.5561 22.1475V8.3407H49.571ZM55.0422 18.605C55.0422 17.4324 55.5553 16.3798 56.3629 15.6658L54.1951 13.2159C52.7256 14.5331 51.7996 16.4567 51.7996 18.5989C51.7965 20.7441 52.7225 22.6707 54.189 23.988L56.3538 21.5381C55.5492 20.821 55.0422 19.7746 55.0422 18.605ZM58.892 22.5107C58.467 22.5107 58.054 22.4368 57.6715 22.3076L56.6361 25.4253C57.3436 25.6654 58.0996 25.7977 58.889 25.7977C62.3198 25.8008 65.1829 23.3325 65.8478 20.0546L62.6659 19.396C62.3046 21.178 60.7532 22.5138 58.892 22.5107ZM58.9011 11.4123C58.1148 11.4123 57.3588 11.5416 56.6513 11.7786L57.6776 14.8994C58.0631 14.7701 58.473 14.6993 58.8981 14.6993C60.7623 14.7024 62.3168 16.0443 62.669 17.8294L65.8509 17.1769C65.1981 13.893 62.335 11.4154 58.9011 11.4123Z" fill="white"/>
</g>
<defs>
<clipPath id="clip0_5410_266">
<rect width="71" height="34" fill="white"/>
</clipPath>
</defs>
</svg>
